<svg width="20" height="6" viewBox="0 0 20 6" fill="none" xmlns="http://www.w3.org/2000/svg">
<path d="M4.26001 0H0.76001V6H2.26001V4H3.36001L4.26001 6H5.76001L4.86001 3.9C5.36001 3.6 5.76001 3.1 5.76001 2.5V1.5C5.76001 0.7 5.06001 0 4.26001 0ZM4.26001 2.5H2.26001V1.5H4.26001V2.5Z" fill="black"/>
<path d="M8.01001 0L6.51001 6H8.01001L8.39001 4.5H10.14L10.51 6H12.01L10.51 0H8.01001ZM8.76001 3L9.01001 2H9.51001L9.76001 3H8.76001Z" fill="black"/>
<path d="M17.74 0L17 3L16.26 0H14.74L14 3L13.26 0H11.76L13.26 6H14.74L15.5 2.96L16.26 6H17.74L19.24 0H17.74Z" fill="black"/>
</svg>
